<svg xmlns="http://www.w3.org/2000/svg" xmlns:xlink="http://www.w3.org/1999/xlink" version="1.1" x="0px" y="0px" viewBox="0 0 100 125" enable-background="new 0 0 100 100" xml:space="preserve"><path d="M95,63.661c-3.852-0.097-6.414,0.67-8.096,1.877c-0.006-1.041-0.118-2.1-0.384-3.153c1.311-1.615,2.913-3.062,4.883-4.137  c-2.099,0.719-3.864,1.638-5.362,2.675c-0.695-1.756-1.864-3.459-3.696-4.986c1.044-2.635,2.469-5.225,4.413-7.577  c-2.574,1.754-4.49,4.003-5.923,6.467c-0.55-0.362-1.128-0.716-1.771-1.049c0.576,0.463,1.082,0.942,1.548,1.431  c-1.549,2.786-2.49,5.824-3.047,8.732c-0.075-3.001-0.515-6.147-1.615-9.018c1.029-2.885,2.447-5.765,4.397-8.444  c-2.191,1.854-3.921,4.081-5.288,6.476c-1.222-2.325-2.972-4.375-5.452-5.876c2.434,1.771,3.83,4.492,4.554,7.588  c-2.336,4.794-3.382,10.047-3.828,14.281c-0.169-4.215-0.879-9.464-2.94-14.368c0.884-2.142,1.983-4.249,3.363-6.221  c-1.606,1.42-2.938,3.017-4.056,4.706c-1.131-2.315-2.586-4.518-4.472-6.448c1.551,2.419,2.652,5.23,3.429,8.147  c-0.05,0.089-0.094,0.179-0.143,0.269c-1.003-1.322-2.32-2.521-4.053-3.511c1.707,1.152,2.788,2.81,3.425,4.732  c-1.112,2.297-1.9,4.674-2.449,6.97c-0.504-2.66-1.375-5.425-2.804-8.031c0.429-1.685,1.027-3.325,1.85-4.861  c-1.128,0.984-2.033,2.118-2.762,3.346c-1.16-1.774-2.606-3.447-4.421-4.922c1.472,2.295,2.565,4.674,3.37,7.035  c-2.446,5.994-1.564,13.442-0.684,17.803h-1c0.255-3.743,0.392-10.353-1.08-16.16c0.756-0.65,1.601-1.233,2.546-1.728  c-0.964,0.368-1.851,0.785-2.674,1.236c-0.718-2.642-1.79-5.083-3.349-6.984c0.381-0.542,0.778-1.078,1.209-1.598  c-0.547,0.373-1.055,0.774-1.544,1.189c-1.03-1.151-2.261-2.074-3.729-2.677c1.099,0.891,1.982,2.14,2.7,3.615  c-1.249,1.226-2.296,2.584-3.166,4.026c-0.649-0.447-1.347-0.879-2.125-1.282c0.695,0.559,1.312,1.141,1.856,1.74  c-1.494,2.613-2.444,5.459-3.033,8.221c-0.125-2.76-0.572-5.611-1.571-8.234c1.088-3.548,2.607-7.002,4.736-9.916  c-2.415,1.964-4.306,4.646-5.789,7.628c-1.214-2.208-2.925-4.15-5.303-5.59c2.351,1.71,3.748,4.31,4.524,7.273  c-1.663,3.833-2.728,8.008-3.404,11.736c0.194-4.565-0.187-9.871-2.061-14.611c0.569-1.065,1.199-2.11,1.904-3.119  c-0.817,0.723-1.559,1.495-2.244,2.297c-0.953-2.168-2.236-4.198-3.951-5.954c1.414,2.206,2.373,4.635,3.002,7.139  c-0.736,0.981-1.395,2.001-1.973,3.049c-0.99-1.267-2.276-2.413-3.947-3.368c1.642,1.107,2.703,2.682,3.35,4.509  c-0.979,1.98-1.712,4.025-2.258,6.029c-0.5-2.351-1.251-4.72-2.355-6.914c0.429-1.668,1.023-3.293,1.839-4.814  c-1.1,0.958-1.984,2.06-2.704,3.251c-1.119-1.828-2.523-3.484-4.292-4.828c1.423,2.219,2.488,4.516,3.286,6.799  c-0.857,2.011-1.33,4.192-1.545,6.374c-0.85-5.354-3.131-10.737-8.496-13.358c2.386,2.344,3.889,5.379,4.811,8.594  c-1.317,0.913-2.341,1.891-3.138,2.899c-1.845-1.996-4.315-3.756-7.623-4.978c2.746,2.21,4.763,4.708,6.244,7.21  c-0.423,0.917-0.694,1.843-0.843,2.762C11.939,63.647,9.148,62.631,5,62.423c13.555,4.335,7.437,14.829,7.437,14.829H61.35h1.063  h1.604h2.979h3.019h0.07h3.558h15.584C89.055,77,81.336,67.939,95,63.661z M18.39,73.594c-0.888-2.08-1.786-4.829-1.943-7.671  c1.2,2.912,1.77,5.626,2.039,7.671H18.39z M20.467,68.319c-0.627-2.316-1.695-4.81-3.468-7.09c0.438-1.342,1.156-2.625,2.233-3.789  C20.242,61.103,20.514,64.975,20.467,68.319z M22.932,73.594c0.088-0.729,0.17-1.563,0.234-2.479  c0.134,0.901,0.283,1.735,0.434,2.479H22.932z M26.362,73.033c-0.681-3.428-1.366-8.479-0.854-13.586  C26.722,64.763,26.649,69.697,26.362,73.033z M29.812,73.012c0.046-3.369,0.396-8.329,1.796-13.51  C32.067,64.13,30.88,69.417,29.812,73.012z M32.915,73.594h-0.339c0.398-1.162,0.815-2.572,1.144-4.13  C33.467,71.027,33.182,72.426,32.915,73.594z M34.313,64.487c0.05-2.713-0.396-5.513-1.774-7.995  c0.366-1.041,0.784-2.079,1.252-3.106C34.527,57.14,34.575,60.994,34.313,64.487z M39.604,73.594h-0.26  c0.063-3.438,0.371-8.839,1.593-14.451C41.292,64.458,40.371,70.05,39.604,73.594z M52.728,62.734  c-0.158-0.669-0.371-1.337-0.642-1.998c0.132-0.208,0.269-0.413,0.411-0.616C52.594,60.991,52.67,61.865,52.728,62.734z   M45.586,69.201c0.148-3.657,0.737-8.135,2.363-12.542c0.908,1.357,1.512,2.776,1.884,4.208  C47.507,63.501,46.247,66.504,45.586,69.201z M48.592,73.415c0.118-2.49,0.523-5.851,1.729-9.085  C50.428,67.761,49.521,71.022,48.592,73.415z M48.354,55.623c0.586-1.434,1.286-2.851,2.125-4.222  c0.874,2.103,1.452,4.581,1.821,7.164c-0.313,0.241-0.614,0.489-0.902,0.743C50.671,58.015,49.681,56.77,48.354,55.623z   M52.714,73.594h-0.925c0.417-1.176,0.832-2.621,1.089-4.22C52.852,70.958,52.787,72.392,52.714,73.594z M59.617,72.33  c-0.604-3.248-1.149-7.708-0.778-12.263C59.834,64.785,59.843,69.162,59.617,72.33z M63.944,72.346  c0.079-3.225,0.443-7.675,1.648-12.343C65.902,64.226,64.918,68.92,63.944,72.346z M67.278,73.594h-0.763  c0.287-0.84,0.586-1.803,0.854-2.864C67.355,71.787,67.32,72.749,67.278,73.594z M73.395,72.85  c-0.101-3.453,0.043-8.533,1.356-13.918C75.055,63.951,74.188,69.246,73.395,72.85z M76.744,73.594  c0.03-0.162,0.061-0.334,0.09-0.504c0.004,0.175,0.01,0.338,0.015,0.504H76.744z M79.739,68.468  c0.191-3.447,0.788-7.534,2.245-11.574c1.229,1.787,1.877,3.677,2.12,5.56C82.039,64.329,80.661,66.443,79.739,68.468z   M81.855,73.594h-0.418c0.471-2.103,1.292-4.849,2.691-7.531C83.819,68.93,82.822,71.586,81.855,73.594z"/><path d="M55.05,39.606c1.657,1.259,2.703,2.406,3.697,1.601c0.535-0.313-1.581,3.125,3.586,4.953  c4.627,1.64,5.088-2.037,5.088-2.037l0.114-5.253l1.532,2.651c0.122,0.217,0.429,0.268,0.682,0.122  c0.254-0.143,0.36-0.436,0.236-0.65l-1.529-2.651l4.604,2.527c0,0,3.415,1.436,4.309-3.39c1.002-5.39-3.034-5.273-2.496-5.583  c1.195-0.457,0.721-1.936,0.462-4c-0.259-2.066,1.135-4.443-0.912-5.07c-2.038-0.614-5.41,2.42-8.132,11.749  c-0.054-0.033-0.104-0.055-0.155-0.078c0.004-0.041,0.013-0.082,0.008-0.123c0.008-0.003,0.017,0.001,0.024-0.003  c0.105-0.062,0.143-0.199,0.08-0.307c-0.063-0.104-0.201-0.141-0.303-0.083c-0.008,0.005-0.009,0.016-0.016,0.021  c-0.066-0.05-0.144-0.081-0.225-0.098c-0.239-1.358-0.476-3.787,0.27-4.495c0.068,0.022,0.143,0.02,0.21-0.02  c0.127-0.074,0.17-0.233,0.096-0.36s-0.229-0.169-0.355-0.095c-0.089,0.05-0.118,0.138-0.116,0.229  c-0.959,0.84-0.606,3.604-0.408,4.765c-0.029,0.01-0.06,0.013-0.088,0.028c-0.028,0.017-0.046,0.042-0.07,0.063  c-0.907-0.754-3.128-2.444-4.333-2.029c-0.077-0.046-0.167-0.065-0.253-0.015c-0.127,0.074-0.169,0.23-0.095,0.357  c0.069,0.127,0.229,0.169,0.355,0.098c0.067-0.039,0.106-0.101,0.121-0.169c0.985-0.298,2.974,1.121,4.031,2.008  c-0.026,0.08-0.039,0.162-0.028,0.246c-0.009,0.003-0.018-0.001-0.026,0.003c-0.104,0.06-0.138,0.196-0.079,0.304  c0.06,0.109,0.196,0.146,0.307,0.084c0.008-0.004,0.008-0.014,0.015-0.019c0.032,0.025,0.072,0.037,0.109,0.053  c-0.005,0.057-0.012,0.112-0.01,0.175c-9.441-2.309-13.754-0.904-14.241,1.169C50.635,38.369,53.391,38.348,55.05,39.606z"/><path d="M24.568,36.48c0.471,0.13-2.611,0.862-0.76,4.742c1.66,3.477,3.956,1.695,3.956,1.695l2.983-2.854l-0.626,2.325  c-0.047,0.186,0.09,0.384,0.313,0.444c0.222,0.062,0.439-0.039,0.493-0.229l0.621-2.331l1.155,3.97c0,0,1.096,2.689,4.273,0.508  c3.543-2.433,1.238-4.607,1.713-4.485c0.921,0.41,1.476-0.671,2.476-1.96c1.005-1.291,3.1-1.835,2.306-3.322  c-0.787-1.471-4.341-1.66-11.031,2.006c-0.012-0.048-0.027-0.088-0.043-0.129c0.025-0.021,0.052-0.038,0.072-0.064  c0.005,0.002,0.007,0.008,0.013,0.01c0.094,0.023,0.19-0.032,0.217-0.125c0.025-0.092-0.031-0.188-0.127-0.212  c-0.006-0.001-0.01,0.003-0.016,0.002c-0.009-0.066-0.035-0.126-0.071-0.181c0.626-0.893,1.856-2.371,2.663-2.321  c0.027,0.039,0.063,0.073,0.11,0.086c0.11,0.029,0.223-0.037,0.253-0.148c0.032-0.111-0.036-0.228-0.146-0.257  c-0.076-0.02-0.143,0.015-0.192,0.068c-0.999-0.062-2.335,1.665-2.87,2.418c-0.021-0.01-0.04-0.026-0.063-0.032  c-0.025-0.007-0.05-0.002-0.075-0.004c-0.085-0.921-0.379-3.084-1.275-3.529c-0.018-0.07-0.058-0.133-0.136-0.153  c-0.111-0.029-0.228,0.035-0.255,0.146c-0.031,0.111,0.037,0.224,0.147,0.254c0.049,0.014,0.096,0.001,0.139-0.018  c0.726,0.358,1.05,2.255,1.143,3.342c-0.058,0.029-0.109,0.068-0.149,0.119c-0.006-0.002-0.008-0.009-0.015-0.011  c-0.095-0.024-0.19,0.032-0.217,0.124c-0.021,0.095,0.032,0.188,0.127,0.215c0.006,0.001,0.01-0.003,0.016-0.002  c0.005,0.033,0.021,0.063,0.032,0.093c-0.033,0.028-0.066,0.054-0.1,0.088c-3.96-6.519-7.137-8.132-8.554-7.254  c-1.424,0.892,0.115,2.412,0.339,4.03C23.627,35.164,23.569,36.38,24.568,36.48z"/></svg>